<svg xmlns="http://www.w3.org/2000/svg" width="100" height="120">
  <g fill="none" fill-rule="evenodd">
    <path fill="#FDB30B" d="M60 0l40 40v66c0 7.732-6.268 14-14 14H14c-7.732 0-14-6.268-14-14V14C0 6.268 6.268 0 14 0h46z"/>
    <path fill="#000" fill-opacity=".12" d="M100 40H74.707C66.975 40 60 33.025 60 25.293V0l40 40z"/>
    <path stroke="#FFF" stroke-linecap="round" stroke-linejoin="round" stroke-width="2" d="M50.03 51.094l-14.416 1.342-.69 15.078 15.105-16.42zm.127 0l14.416 1.342.689 15.078-15.105-16.42zm-15.119 16.73h30.213L50.174 97.401 35.038 67.823zm-10.677-.228l11.173-14.873-.493 14.873h-10.68zm51.244-.05L64.62 52.77l.492 14.872 10.492-.097zm-40.567-.006h30.086L50.081 51.293 35.038 67.54zm15.088 30.244L34.941 67.69H24.2l25.927 30.094zm-.076-.066l15.185-30.093h10.589L50.05 97.718z"/>
  </g>
</svg>
